<mxfile host="app.diagrams.net" modified="2023-07-05T10:14:48.781Z" agent="Mozilla/5.0 (Windows NT 10.0; Win64; x64) AppleWebKit/537.36 (KHTML, like Gecko) Chrome/114.0.0.0 Safari/537.36 Edg/114.0.1823.67" etag="5-ZurRMXCmXgaJit8RGl" version="21.5.2" type="github">
  <diagram name="Ultra High Level Architecture Overview" id="41GNN0v2DLa7nzetCiMy">
    <mxGraphModel dx="1426" dy="746" grid="1" gridSize="10" guides="1" tooltips="1" connect="1" arrows="1" fold="1" page="1" pageScale="1" pageWidth="1169" pageHeight="827" background="none" math="0" shadow="0">
      <root>
        <mxCell id="0" />
        <mxCell id="1" parent="0" />
        <mxCell id="CofeB_WBe9oteIBys9ix-12" value="&lt;h1 style=&quot;border-color: var(--border-color); font-family: Helvetica; text-align: left; font-size: 32px;&quot;&gt;Ultra High Level Architecture Overview&lt;/h1&gt;" style="swimlane;whiteSpace=wrap;html=1;hachureGap=4;fontFamily=Architects Daughter;fontSource=https%3A%2F%2Ffonts.googleapis.com%2Fcss%3Ffamily%3DArchitects%2BDaughter;fontSize=20;startSize=60;glass=0;" vertex="1" parent="1">
          <mxGeometry x="40" y="40" width="1080" height="760" as="geometry" />
        </mxCell>
        <mxCell id="CofeB_WBe9oteIBys9ix-9" value="Web Services" style="swimlane;whiteSpace=wrap;html=1;hachureGap=4;fontFamily=Architects Daughter;fontSource=https%3A%2F%2Ffonts.googleapis.com%2Fcss%3Ffamily%3DArchitects%2BDaughter;fontSize=20;swimlaneLine=1;rounded=1;" vertex="1" parent="CofeB_WBe9oteIBys9ix-12">
          <mxGeometry x="80" y="160" width="350" height="560" as="geometry">
            <mxRectangle x="80" y="160" width="120" height="40" as="alternateBounds" />
          </mxGeometry>
        </mxCell>
        <mxCell id="CofeB_WBe9oteIBys9ix-17" value="`docs.arolariu.ro` service domain" style="html=1;whiteSpace=wrap;container=1;recursiveResize=0;collapsible=0;hachureGap=4;fontFamily=Architects Daughter;fontSource=https%3A%2F%2Ffonts.googleapis.com%2Fcss%3Ffamily%3DArchitects%2BDaughter;fontSize=20;glass=0;" vertex="1" parent="CofeB_WBe9oteIBys9ix-9">
          <mxGeometry x="10" y="240" width="330" height="70" as="geometry" />
        </mxCell>
        <mxCell id="CofeB_WBe9oteIBys9ix-21" value="`about.arolariu.ro` service domain" style="html=1;whiteSpace=wrap;container=1;recursiveResize=0;collapsible=0;hachureGap=4;fontFamily=Architects Daughter;fontSource=https%3A%2F%2Ffonts.googleapis.com%2Fcss%3Ffamily%3DArchitects%2BDaughter;fontSize=20;glass=0;" vertex="1" parent="CofeB_WBe9oteIBys9ix-9">
          <mxGeometry x="10" y="320" width="330" height="70" as="geometry" />
        </mxCell>
        <mxCell id="CofeB_WBe9oteIBys9ix-22" value="`itc.arolariu.ro` service domain" style="html=1;whiteSpace=wrap;container=1;recursiveResize=0;collapsible=0;hachureGap=4;fontFamily=Architects Daughter;fontSource=https%3A%2F%2Ffonts.googleapis.com%2Fcss%3Ffamily%3DArchitects%2BDaughter;fontSize=20;glass=0;" vertex="1" parent="CofeB_WBe9oteIBys9ix-9">
          <mxGeometry x="10" y="400" width="330" height="70" as="geometry" />
        </mxCell>
        <mxCell id="CofeB_WBe9oteIBys9ix-23" value="`cv.arolariu.ro` service domain" style="html=1;whiteSpace=wrap;container=1;recursiveResize=0;collapsible=0;hachureGap=4;fontFamily=Architects Daughter;fontSource=https%3A%2F%2Ffonts.googleapis.com%2Fcss%3Ffamily%3DArchitects%2BDaughter;fontSize=20;glass=0;" vertex="1" parent="CofeB_WBe9oteIBys9ix-9">
          <mxGeometry x="10" y="480" width="330" height="70" as="geometry" />
        </mxCell>
        <mxCell id="CofeB_WBe9oteIBys9ix-32" value="`&lt;b&gt;arolariu.ro&lt;/b&gt;` service domain" style="html=1;whiteSpace=wrap;container=1;recursiveResize=0;collapsible=0;hachureGap=4;fontFamily=Architects Daughter;fontSource=https%3A%2F%2Ffonts.googleapis.com%2Fcss%3Ffamily%3DArchitects%2BDaughter;fontSize=20;glass=0;" vertex="1" parent="CofeB_WBe9oteIBys9ix-9">
          <mxGeometry x="10" y="40" width="330" height="70" as="geometry" />
        </mxCell>
        <mxCell id="CofeB_WBe9oteIBys9ix-15" value="`api.arolariu.ro` service domain" style="whiteSpace=wrap;container=1;recursiveResize=0;collapsible=0;hachureGap=4;fontFamily=Architects Daughter;fontSource=https%3A%2F%2Ffonts.googleapis.com%2Fcss%3Ffamily%3DArchitects%2BDaughter;fontSize=20;glass=0;spacingRight=0;spacing=2;labelBackgroundColor=none;labelBorderColor=none;verticalAlign=middle;html=1;spacingTop=0;spacingLeft=0;" vertex="1" parent="CofeB_WBe9oteIBys9ix-9">
          <mxGeometry x="10" y="160" width="330" height="70" as="geometry" />
        </mxCell>
        <mxCell id="CofeB_WBe9oteIBys9ix-13" value="General Workers" style="swimlane;whiteSpace=wrap;html=1;hachureGap=4;fontFamily=Architects Daughter;fontSource=https%3A%2F%2Ffonts.googleapis.com%2Fcss%3Ffamily%3DArchitects%2BDaughter;fontSize=20;rounded=1;" vertex="1" parent="CofeB_WBe9oteIBys9ix-12">
          <mxGeometry x="650" y="160" width="350" height="560" as="geometry" />
        </mxCell>
        <mxCell id="CofeB_WBe9oteIBys9ix-33" value="Discord.JS Worker (Bot)" style="html=1;whiteSpace=wrap;container=1;recursiveResize=0;collapsible=0;hachureGap=4;fontFamily=Architects Daughter;fontSource=https%3A%2F%2Ffonts.googleapis.com%2Fcss%3Ffamily%3DArchitects%2BDaughter;fontSize=20;glass=0;" vertex="1" parent="CofeB_WBe9oteIBys9ix-13">
          <mxGeometry x="10" y="40" width="330" height="70" as="geometry" />
        </mxCell>
        <mxCell id="CofeB_WBe9oteIBys9ix-34" value="CI/CD Test Worker" style="html=1;whiteSpace=wrap;container=1;recursiveResize=0;collapsible=0;hachureGap=4;fontFamily=Architects Daughter;fontSource=https%3A%2F%2Ffonts.googleapis.com%2Fcss%3Ffamily%3DArchitects%2BDaughter;fontSize=20;glass=0;" vertex="1" parent="CofeB_WBe9oteIBys9ix-13">
          <mxGeometry x="10" y="150" width="330" height="70" as="geometry" />
        </mxCell>
        <mxCell id="CofeB_WBe9oteIBys9ix-35" value="Telemetry Worker" style="html=1;whiteSpace=wrap;container=1;recursiveResize=0;collapsible=0;hachureGap=4;fontFamily=Architects Daughter;fontSource=https%3A%2F%2Ffonts.googleapis.com%2Fcss%3Ffamily%3DArchitects%2BDaughter;fontSize=20;glass=0;" vertex="1" parent="CofeB_WBe9oteIBys9ix-13">
          <mxGeometry x="10" y="260" width="330" height="70" as="geometry" />
        </mxCell>
        <mxCell id="CofeB_WBe9oteIBys9ix-36" value="Platform Maintenance Worker" style="html=1;whiteSpace=wrap;container=1;recursiveResize=0;collapsible=0;hachureGap=4;fontFamily=Architects Daughter;fontSource=https%3A%2F%2Ffonts.googleapis.com%2Fcss%3Ffamily%3DArchitects%2BDaughter;fontSize=20;glass=0;" vertex="1" parent="CofeB_WBe9oteIBys9ix-13">
          <mxGeometry x="10" y="370" width="330" height="70" as="geometry" />
        </mxCell>
        <mxCell id="CofeB_WBe9oteIBys9ix-37" value="Platform Maintenance Worker" style="html=1;whiteSpace=wrap;container=1;recursiveResize=0;collapsible=0;hachureGap=4;fontFamily=Architects Daughter;fontSource=https%3A%2F%2Ffonts.googleapis.com%2Fcss%3Ffamily%3DArchitects%2BDaughter;fontSize=20;glass=0;" vertex="1" parent="CofeB_WBe9oteIBys9ix-13">
          <mxGeometry x="10" y="480" width="330" height="70" as="geometry" />
        </mxCell>
      </root>
    </mxGraphModel>
  </diagram>
</mxfile>
